<?xml version="1.0" encoding="UTF-8"?>
<svg width="88px" height="88px" viewBox="0 0 88 88" version="1.1" xmlns="http://www.w3.org/2000/svg" xmlns:xlink="http://www.w3.org/1999/xlink">
    <title>ga_logo</title>
    <g id="Page-1" stroke="none" stroke-width="1" fill="none" fill-rule="evenodd">
        <g id="Desktop-HD" transform="translate(-39.000000, -35.000000)" fill="#FA4542">
            <path d="M83,35 C107.2605,35 127,54.7395 127,79 C127,103.2605 107.2605,123 83,123 C74.541,123 66.4175,120.6295 59.416,116.136 L59.416,116.136 L42.773,122.802 C42.4375,122.934 42.0965,123 41.75,123 C41.035,123 40.331,122.7195 39.8085,122.197 C39.0275,121.416 38.791,120.25 39.198,119.227 L39.198,119.227 L45.864,102.584 C41.3705,95.5825 39,87.459 39,79 C39,54.7395 58.7395,35 83,35 Z M82.7380952,39.452381 C60.7859864,39.452381 42.9285714,57.3097959 42.9285714,79.2619048 C42.9285714,87.3716735 45.328517,95.1345306 49.8724898,101.703102 C50.4127619,102.482231 50.5265034,103.488844 50.1739048,104.376027 L50.1739048,104.376027 L45.1920272,116.807973 L57.6239728,111.826095 C57.9651973,111.689605 58.323483,111.621361 58.6817687,111.621361 C59.2504762,111.621361 59.8191837,111.791973 60.296898,112.12751 C66.8654694,116.671483 74.6283265,119.071429 82.7380952,119.071429 C104.690204,119.071429 122.547619,101.214014 122.547619,79.2619048 C122.547619,57.3097959 104.690204,39.452381 82.7380952,39.452381 Z M86.7975901,47.5714286 L91.5058462,48.4992979 C90.7154654,50.4581926 91.6089261,52.6920681 93.5678255,53.4825235 C95.4303078,54.2474802 97.582472,53.4352673 98.4669035,51.6066969 L98.5510632,51.4204727 L102.537607,54.1010775 C101.025515,55.5789086 101.025515,57.9845325 102.537607,59.4623636 C103.964409,60.8891611 106.256265,60.938361 107.742725,59.6099633 L107.89883,59.4623636 L110.579518,63.4488982 C108.620618,64.2736879 107.69267,66.4731526 108.517462,68.4321237 C109.282421,70.3278283 111.399181,71.2259406 113.279141,70.5653713 L113.466289,70.494098 L114.428571,75.2024957 C112.332258,75.2024957 110.613852,76.8864859 110.613852,78.982871 C110.613852,81.0470056 112.226535,82.6918952 114.23319,82.792685 L114.428571,82.7975808 L113.5007,87.5058255 C111.5418,86.7153702 109.307919,87.643316 108.517462,89.5678763 C107.719277,91.4635808 108.562575,93.584585 110.39319,94.4669698 L110.579518,94.5510254 L107.89883,98.5376364 C106.421072,97.0598818 104.015366,97.0598818 102.537607,98.5376364 C101.077656,99.964434 101.027313,102.256284 102.386578,103.742741 L102.537607,103.898846 L98.5510632,106.579451 C97.7262715,104.620556 95.4923905,103.692687 93.5678255,104.517477 C91.6721164,105.282359 90.7742167,107.399112 91.4345935,109.310254 L91.5058462,109.500626 L86.7975901,110.428571 C86.7975901,108.332186 85.1135957,106.613785 82.9827945,106.613785 C80.9519165,106.613785 79.3081341,108.226464 79.207381,110.233184 L79.2024864,110.428571 L74.4942303,109.500626 C75.2846875,107.541731 74.3567395,105.307855 72.4321745,104.517477 C70.5364654,103.719293 68.3832293,104.562517 67.529881,106.393123 L67.4489368,106.579451 L63.4623925,103.898846 C64.9401507,102.421091 64.9401507,100.015391 63.4623925,98.5376364 C62.0355915,97.1108389 59.7437355,97.061639 58.226303,98.3900367 L58.0667589,98.5376364 L55.4204821,94.5510254 C57.3450471,93.7262357 58.2729951,91.5267709 57.4825378,89.5678763 C56.7175792,87.7053985 54.6008906,86.7762747 52.6896787,87.43467 L52.4993001,87.5058255 L51.5714286,82.7975808 C53.6678188,82.7975808 55.3861476,81.1135905 55.3861476,78.982871 C55.3861476,76.951998 53.7735363,75.3081478 51.7668167,75.2073904 L51.5714286,75.2024957 L52.4993001,70.494098 C54.4582761,71.2847063 56.6920806,70.3910184 57.4825378,68.4321237 C58.2474965,66.5363452 57.4031265,64.4153386 55.6035949,63.5329537 L55.4204821,63.4488982 L58.0667589,59.4623636 C59.5789281,60.9401182 61.9846343,60.9401182 63.4623925,59.4623636 C64.8891935,58.0354922 64.9383936,55.7437105 63.6099926,54.2571901 L63.4623925,54.1010775 L67.4489368,51.4204727 C68.239394,53.3793674 70.473275,54.2729788 72.4321745,53.4825235 C74.2946567,52.7175667 75.2237828,50.6008116 74.5653859,48.6896691 L74.4942303,48.4992979 L79.2024864,47.5714286 C79.2024864,49.6677372 80.8864043,51.3861383 82.9827945,51.3861383 C85.1135957,51.3861383 86.7975901,49.6677372 86.7975901,47.5714286 Z M74.3910739,60.3214877 C72.2260148,60.3214877 70.6106894,60.9401182 69.4765816,62.2116371 C68.3730529,63.3801614 67.8212604,64.9164636 67.7633561,66.8206724 L67.7582528,67.1605283 L67.7582528,90.8394717 C67.7582528,92.901446 68.3768848,94.5510254 69.545327,95.7882864 C70.7138457,97.025471 72.2603493,97.644025 74.4254849,97.644025 C76.6249549,97.644025 78.2402039,96.9910601 79.3743117,95.753952 C80.4778404,94.5854277 81.0296328,93.0491256 81.0875372,91.1449168 L81.0926405,90.8050608 L81.0926405,79.9794856 L74.3910739,79.9794856 L74.3910739,84.4471602 L76.0750683,84.4471602 L76.0750683,91.1487105 C76.0750683,92.0766562 75.319022,92.7983664 74.3910739,92.7983664 C73.5147508,92.7983664 72.8529425,92.1546188 72.7821129,91.3303585 L72.775825,91.1831213 L72.775825,66.7824678 C72.775825,65.8545985 73.4632024,65.1328884 74.3910739,65.1328884 C75.2701826,65.1328884 76.0258923,65.7497443 76.1030055,66.6036807 L76.1094792,66.7481335 L76.1094792,72.8312061 L81.0926405,72.8312061 L81.0926405,67.1605283 C81.0926405,65.0984776 80.439674,63.4488982 79.3055663,62.2116371 C78.1371241,60.9401182 76.5906205,60.3214877 74.3910739,60.3214877 Z M93.2585095,60.5964685 L87.1756515,60.5964685 L82.3298281,97.3347098 L87.5879708,97.3347098 L88.7220786,88.3994369 L91.7464168,88.3994369 L92.8805246,97.3347098 L98.1386674,97.3347098 L93.2585095,60.5964685 Z M89.8258119,77.952381 C91.257279,77.952381 92.4285714,79.134145 92.4285714,80.571393 C92.4285714,82.0087121 91.257279,83.1904762 89.8258119,83.1904762 C88.3616963,83.1904762 87.1904762,82.0087121 87.1904762,80.571393 C87.1904762,79.134145 88.3616963,77.952381 89.8258119,77.952381 Z" id="ga_logo"></path>
        </g>
    </g>
</svg>